<?xml version="1.0" encoding="UTF-8"?>
<svg width="1440" height="1024" viewBox="0 0 1440 1024" fill="none" xmlns="http://www.w3.org/2000/svg">
  <g opacity="0.15">
    <!-- Grid Pattern -->
    <path d="M0 64L1440 64" stroke="currentColor" stroke-width="0.5"/>
    <path d="M0 128L1440 128" stroke="currentColor" stroke-width="0.5"/>
    <path d="M0 192L1440 192" stroke="currentColor" stroke-width="0.5"/>
    <path d="M0 256L1440 256" stroke="currentColor" stroke-width="0.5"/>
    <!-- Vertical Lines -->
    <path d="M64 0L64 1024" stroke="currentColor" stroke-width="0.5"/>
    <path d="M128 0L128 1024" stroke="currentColor" stroke-width="0.5"/>
    <path d="M192 0L192 1024" stroke="currentColor" stroke-width="0.5"/>
    <path d="M256 0L256 1024" stroke="currentColor" stroke-width="0.5"/>
    <!-- Dots -->
    <circle cx="64" cy="64" r="2" fill="currentColor"/>
    <circle cx="128" cy="128" r="2" fill="currentColor"/>
    <circle cx="192" cy="192" r="2" fill="currentColor"/>
    <circle cx="256" cy="256" r="2" fill="currentColor"/>
  </g>
  <!-- Abstract Shapes -->
  <path d="M720 256C720 397.385 605.385 512 464 512C322.615 512 208 397.385 208 256C208 114.615 322.615 0 464 0C605.385 0 720 114.615 720 256Z" fill="url(#paint0_radial)" fill-opacity="0.1"/>
  <path d="M1232 768C1232 909.385 1117.39 1024 976 1024C834.615 1024 720 909.385 720 768C720 626.615 834.615 512 976 512C1117.39 512 1232 626.615 1232 768Z" fill="url(#paint1_radial)" fill-opacity="0.1"/>
  <!-- Gradients -->
  <defs>
    <radialGradient id="paint0_radial" cx="0" cy="0" r="1" gradientUnits="userSpaceOnUse" gradientTransform="translate(464 256) rotate(90) scale(256)">
      <stop stop-color="#60A5FA"/>
      <stop offset="1" stop-color="#60A5FA" stop-opacity="0"/>
    </radialGradient>
    <radialGradient id="paint1_radial" cx="0" cy="0" r="1" gradientUnits="userSpaceOnUse" gradientTransform="translate(976 768) rotate(90) scale(256)">
      <stop stop-color="#34D399"/>
      <stop offset="1" stop-color="#34D399" stop-opacity="0"/>
    </radialGradient>
  </defs>
</svg>